<svg width="83" height="78" viewBox="0 0 83 78" fill="none" xmlns="http://www.w3.org/2000/svg">
<line x1="80.5957" y1="21.8237" x2="80.5957" y2="67.7053" stroke="black" stroke-width="4"/>
<line x1="3" y1="21.8237" x2="3" y2="67.7053" stroke="black" stroke-width="4"/>
<line x1="81.1804" y1="22.9739" x2="40.4904" y2="1.77396" stroke="black" stroke-width="4"/>
<line x1="42.6141" y1="1.7737" x2="1.92405" y2="22.9736" stroke="black" stroke-width="4"/>
<line x1="19.6135" y1="75.7737" x2="1.69273" y2="66.4368" stroke="black" stroke-width="4"/>
<line x1="81.2747" y1="66.4368" x2="63.354" y2="75.7737" stroke="black" stroke-width="4"/>
<line x1="41.7422" y1="48.9612" x2="54.7422" y2="38.4451" stroke="black" stroke-width="4"/>
<line x1="26.1111" y1="36.337" x2="44.3609" y2="48.5309" stroke="black" stroke-width="4"/>
<path d="M23.4 57.704C24.8507 57.704 25.992 58.1307 26.824 58.984C27.6667 59.8267 28.088 61.048 28.088 62.648V69H26.92V65.704H19.88V69H18.728V62.648C18.728 61.048 19.144 59.8267 19.976 58.984C20.8187 58.1307 21.96 57.704 23.4 57.704ZM26.92 64.68V62.536C26.92 61.288 26.6107 60.3493 25.992 59.72C25.3733 59.08 24.5093 58.76 23.4 58.76C22.2907 58.76 21.4267 59.08 20.808 59.72C20.1893 60.3493 19.88 61.288 19.88 62.536V64.68H26.92ZM33.7645 69.08C33.0072 69.08 32.4205 68.8667 32.0045 68.44C31.5992 68.0133 31.3965 67.4213 31.3965 66.664V57.128H32.5325V66.568C32.5325 67.0693 32.6498 67.4533 32.8845 67.72C33.1192 67.976 33.4712 68.104 33.9405 68.104C34.2392 68.104 34.4952 68.056 34.7085 67.96L34.7885 68.904C34.4578 69.0213 34.1165 69.08 33.7645 69.08ZM38.702 69.08C37.9447 69.08 37.358 68.8667 36.942 68.44C36.5367 68.0133 36.334 67.4213 36.334 66.664V57.128H37.47V66.568C37.47 67.0693 37.5873 67.4533 37.822 67.72C38.0567 67.976 38.4087 68.104 38.878 68.104C39.1767 68.104 39.4327 68.056 39.646 67.96L39.726 68.904C39.3953 69.0213 39.054 69.08 38.702 69.08ZM45.459 60.584H46.595V69H45.459V60.584ZM46.035 58.744C45.8003 58.744 45.603 58.664 45.443 58.504C45.283 58.344 45.203 58.152 45.203 57.928C45.203 57.7147 45.283 57.528 45.443 57.368C45.603 57.208 45.8003 57.128 46.035 57.128C46.2697 57.128 46.467 57.208 46.627 57.368C46.787 57.5173 46.867 57.6987 46.867 57.912C46.867 58.1467 46.787 58.344 46.627 58.504C46.467 58.664 46.2697 58.744 46.035 58.744ZM54.0439 60.52C55.0999 60.52 55.9372 60.8293 56.5559 61.448C57.1852 62.056 57.4999 62.9467 57.4999 64.12V69H56.3639V64.232C56.3639 63.3573 56.1452 62.6907 55.7079 62.232C55.2705 61.7733 54.6465 61.544 53.8359 61.544C52.9292 61.544 52.2092 61.816 51.6759 62.36C51.1532 62.8933 50.8919 63.6347 50.8919 64.584V69H49.7559V60.584H50.8439V62.136C51.1532 61.624 51.5799 61.2293 52.1239 60.952C52.6785 60.664 53.3185 60.52 54.0439 60.52ZM62.561 57.8V69H61.409V58.824H58.769V57.8H62.561Z" fill="black"/>
<line x1="18.0189" y1="50.0002" x2="71.0189" y2="51.0002" stroke="black" stroke-width="2"/>
<path d="M26.88 26.224C27.616 26.384 28.1813 26.704 28.576 27.184C28.9813 27.6533 29.184 28.2613 29.184 29.008C29.184 29.968 28.8267 30.7093 28.112 31.232C27.408 31.744 26.3627 32 24.976 32H19.824V20.8H24.656C25.904 20.8 26.8693 21.0507 27.552 21.552C28.2453 22.0533 28.592 22.7627 28.592 23.68C28.592 24.2987 28.4373 24.8267 28.128 25.264C27.8293 25.6907 27.4133 26.0107 26.88 26.224ZM21.008 21.776V25.84H24.576C25.4827 25.84 26.1813 25.6693 26.672 25.328C27.1627 24.976 27.408 24.4693 27.408 23.808C27.408 23.1467 27.1627 22.6453 26.672 22.304C26.1813 21.952 25.4827 21.776 24.576 21.776H21.008ZM24.96 31.024C25.9627 31.024 26.72 30.8533 27.232 30.512C27.744 30.1707 28 29.6373 28 28.912C28 27.5147 26.9867 26.816 24.96 26.816H21.008V31.024H24.96ZM35.0865 32.08C34.2758 32.08 33.5452 31.8987 32.8945 31.536C32.2438 31.1627 31.7318 30.6507 31.3585 30C30.9852 29.3493 30.7985 28.6133 30.7985 27.792C30.7985 26.9707 30.9852 26.2347 31.3585 25.584C31.7318 24.9333 32.2438 24.4267 32.8945 24.064C33.5452 23.7013 34.2758 23.52 35.0865 23.52C35.8972 23.52 36.6278 23.7013 37.2785 24.064C37.9292 24.4267 38.4358 24.9333 38.7985 25.584C39.1718 26.2347 39.3585 26.9707 39.3585 27.792C39.3585 28.6133 39.1718 29.3493 38.7985 30C38.4358 30.6507 37.9292 31.1627 37.2785 31.536C36.6278 31.8987 35.8972 32.08 35.0865 32.08ZM35.0865 31.072C35.6838 31.072 36.2172 30.9387 36.6865 30.672C37.1665 30.3947 37.5398 30.0053 37.8065 29.504C38.0732 29.0027 38.2065 28.432 38.2065 27.792C38.2065 27.152 38.0732 26.5813 37.8065 26.08C37.5398 25.5787 37.1665 25.1947 36.6865 24.928C36.2172 24.6507 35.6838 24.512 35.0865 24.512C34.4892 24.512 33.9505 24.6507 33.4705 24.928C33.0012 25.1947 32.6278 25.5787 32.3505 26.08C32.0838 26.5813 31.9505 27.152 31.9505 27.792C31.9505 28.432 32.0838 29.0027 32.3505 29.504C32.6278 30.0053 33.0012 30.3947 33.4705 30.672C33.9505 30.9387 34.4892 31.072 35.0865 31.072ZM48.8324 32L45.2164 27.072L41.6164 32H40.2564L44.5124 26.24L40.5284 20.8H41.8884L45.2644 25.376L48.6244 20.8H49.9044L45.9364 26.208L50.2084 32H48.8324ZM51.9121 23.584H53.0481V32H51.9121V23.584ZM52.4881 21.744C52.2535 21.744 52.0561 21.664 51.8961 21.504C51.7361 21.344 51.6561 21.152 51.6561 20.928C51.6561 20.7147 51.7361 20.528 51.8961 20.368C52.0561 20.208 52.2535 20.128 52.4881 20.128C52.7228 20.128 52.9201 20.208 53.0801 20.368C53.2401 20.5173 53.3201 20.6987 53.3201 20.912C53.3201 21.1467 53.2401 21.344 53.0801 21.504C52.9201 21.664 52.7228 21.744 52.4881 21.744ZM59.809 31.072C60.3317 31.072 60.8117 30.9813 61.249 30.8C61.697 30.608 62.0757 30.3307 62.385 29.968L63.025 30.704C62.6517 31.152 62.1877 31.4933 61.633 31.728C61.0783 31.9627 60.465 32.08 59.793 32.08C58.929 32.08 58.161 31.8987 57.489 31.536C56.817 31.1627 56.2943 30.6507 55.921 30C55.5477 29.3493 55.361 28.6133 55.361 27.792C55.361 26.9707 55.537 26.2347 55.889 25.584C56.2517 24.9333 56.7477 24.4267 57.377 24.064C58.0063 23.7013 58.721 23.52 59.521 23.52C60.2677 23.52 60.9397 23.6907 61.537 24.032C62.145 24.3733 62.625 24.848 62.977 25.456C63.3397 26.064 63.5317 26.7573 63.553 27.536L56.641 28.88C56.8543 29.5627 57.2383 30.1013 57.793 30.496C58.3583 30.88 59.0303 31.072 59.809 31.072ZM59.521 24.496C58.9343 24.496 58.4063 24.6347 57.937 24.912C57.4783 25.1787 57.1157 25.5573 56.849 26.048C56.593 26.528 56.465 27.0827 56.465 27.712C56.465 27.872 56.4703 27.9893 56.481 28.064L62.417 26.912C62.289 26.208 61.9637 25.632 61.441 25.184C60.9183 24.7253 60.2783 24.496 59.521 24.496Z" fill="black"/>
</svg>
